<svg xmlns="http://www.w3.org/2000/svg" viewBox="0 0 120 120" role="img" aria-labelledby="title desc"><title id="title">Lexy mascot</title><desc id="desc">Playful owl mascot for Lex Moscua</desc><defs><linearGradient id="bg" x1="0" x2="1" y1="0" y2="1"><stop offset="0%" stop-color="#f97316"/><stop offset="50%" stop-color="#ec4899"/><stop offset="100%" stop-color="#6366f1"/></linearGradient></defs><circle cx="60" cy="60" r="55" fill="url(#bg)"/><path d="M35 70c4 15 23 25 25 25s21-10 25-25" fill="#f8fafc"/><path d="M30 46c0-14 13-26 30-26s30 12 30 26c0 8-4 16-9 21-4 4-13 8-21 8s-17-4-21-8c-5-5-9-13-9-21z" fill="#f1f5f9"/><ellipse cx="45" cy="48" rx="11" ry="12" fill="#fff"/><ellipse cx="75" cy="48" rx="11" ry="12" fill="#fff"/><circle cx="45" cy="48" r="6" fill="#0f172a"/><circle cx="75" cy="48" r="6" fill="#0f172a"/><circle cx="43" cy="46" r="2" fill="#f8fafc"/><circle cx="73" cy="46" r="2" fill="#f8fafc"/><path d="M60 58c4 0 9 1 9 4 0 4-5 7-9 7s-9-3-9-7c0-3 5-4 9-4z" fill="#f97316"/><path d="M44 82c4 3 9 5 16 5s12-2 16-5" stroke="#0f172a" stroke-width="3" stroke-linecap="round" fill="none"/><path d="M28 70c-4 0-6 4-4 7 3 4 11 11 20 12" stroke="#f8fafc" stroke-width="4" stroke-linecap="round" fill="none"/><path d="M92 70c4 0 6 4 4 7-3 4-11 11-20 12" stroke="#f8fafc" stroke-width="4" stroke-linecap="round" fill="none"/></svg>
